<svg id="Layer_1" data-name="Layer 1" xmlns="http://www.w3.org/2000/svg" viewBox="0 0 600 600"><defs><style>.cls-1{fill:#1483f3;}.cls-2,.cls-3{fill:#fff;}.cls-3{fill-rule:evenodd;}</style></defs><circle class="cls-1" cx="300" cy="292.19" r="242.74"/><circle class="cls-2" cx="450.35" cy="411.38" r="12.1"/><path class="cls-3" d="M426.58,306.72H367.89a2.09,2.09,0,0,1-1.53-3.51l31.72-34c12.16-13.16,20.4-23.76,24.47-31.52.56-1.05,1.13-2.08,1.74-3.09.11-.2.21-.4.3-.59a56.13,56.13,0,0,0,4.64-22.56,48.26,48.26,0,0,0-13.57-34.2C406.3,167.62,394,162.73,379,162.73c-15.11,0-27.9,5.22-38,15.47-9.68,9.4-15.1,21.66-16.11,36.42a5,5,0,0,0,1.34,3.74A5,5,0,0,0,330,220h9.86a5,5,0,0,0,5-4.42c1.3-10.22,4.76-18.22,10.26-23.77,6.23-6.23,13.77-9.26,23.05-9.26,8.92,0,16.15,2.8,22.11,8.56a27.62,27.62,0,0,1,9,20.89,34.45,34.45,0,0,1-5.13,18l-.18.3-.09.34a4,4,0,0,1-.66,1.17c-3.85,5.88-11.22,14.93-21.86,26.86l-52.37,55.89a7.14,7.14,0,0,0-1.43,7.49h0a7.13,7.13,0,0,0,6.64,4.53h92.45a5,5,0,0,0,5-5v-9.81A5,5,0,0,0,426.58,306.72Z"/><rect class="cls-2" x="172.43" y="160.83" width="20.76" height="164.42" rx="10.38"/><path class="cls-3" d="M311,316.64l-74.38-73.07a4.39,4.39,0,0,1,0-6.25l68.75-67.89a5,5,0,0,0,.33-6.81,5.32,5.32,0,0,0-4.17-1.79H290.45a15.91,15.91,0,0,0-11.21,4.61l-72.13,71.44a5,5,0,0,0,0,7.15l77.67,76.61A16,16,0,0,0,296,325.25h11.13a5.32,5.32,0,0,0,4.18-1.8A5,5,0,0,0,311,316.64Z"/><path class="cls-2" d="M205.39,423.54q-4.9,0-7-4.81l-25.11-56.37q-1.53-3.64.15-5.91a5.77,5.77,0,0,1,5-2.26,6.29,6.29,0,0,1,4.19,1.2A9.09,9.09,0,0,1,184.9,359l20.69,48,20.68-48.1a9.6,9.6,0,0,1,2.5-3.51,6.14,6.14,0,0,1,4-1.2,5.3,5.3,0,0,1,4.66,2.3c1.06,1.54,1,3.5,0,5.87l-25.11,56.37a8.94,8.94,0,0,1-2.65,3.61A6.93,6.93,0,0,1,205.39,423.54Z"/><path class="cls-2" d="M254.64,423.54q-6.15,0-6.15-6.35V360.54q0-6.36,6.15-6.35t6.16,6.35v56.65Q260.8,423.55,254.64,423.54Z"/><path class="cls-2" d="M283.6,422.77q-6.54,0-6.54-6.54V361.5q0-6.54,6.54-6.54h34.34q5,0,5,4.81,0,5-5,5H288.89v18.66h26.93q5,0,5,4.91t-5,4.9H288.89V413h29.05c3.33,0,5,1.63,5,4.91s-1.67,4.9-5,4.9Z"/><path class="cls-2" d="M359.49,423.54q-4.9,0-6.73-5.19l-20.1-56.85a5.47,5.47,0,0,1,.43-5.2c1-1.41,2.68-2.11,5.05-2.11a6.14,6.14,0,0,1,4,1.2,8.23,8.23,0,0,1,2.31,3.8L359.88,405,376,359.29c1.21-3.4,3.27-5.1,6.15-5.1a5.13,5.13,0,0,1,3.66,1.25,9.8,9.8,0,0,1,2.31,3.94L404,405.65l15.87-46.46a8.54,8.54,0,0,1,2.31-3.75,5.77,5.77,0,0,1,3.94-1.25,5.11,5.11,0,0,1,4.53,2.11,5.65,5.65,0,0,1,.38,5.2l-20.3,56.94a8.68,8.68,0,0,1-2.5,3.85,7.46,7.46,0,0,1-8.27,0,8.68,8.68,0,0,1-2.5-3.94l-15.68-44.54L366,418.44a9,9,0,0,1-2.45,3.85A6.17,6.17,0,0,1,359.49,423.54Z"/></svg>